<?xml version="1.0" encoding="UTF-8" standalone="no"?>
<!DOCTYPE svg PUBLIC "-//W3C//DTD SVG 1.1//EN"
 "http://www.w3.org/Graphics/SVG/1.1/DTD/svg11.dtd">
<!-- Generated by graphviz version 2.43.0 (0)
 -->
<!-- Title: G Pages: 1 -->
<svg width="396pt" height="327pt"
 viewBox="0.00 0.00 395.66 327.36" xmlns="http://www.w3.org/2000/svg" xmlns:xlink="http://www.w3.org/1999/xlink">
<g id="graph0" class="graph" transform="scale(1 1) rotate(0) translate(4 323.36)">
<title>G</title>
<polygon fill="white" stroke="transparent" points="-4,4 -4,-323.36 391.66,-323.36 391.66,4 -4,4"/>
<!-- base_link -->
<g id="node1" class="node">
<title>base_link</title>
<polygon fill="none" stroke="black" points="378.62,-319.36 310.62,-319.36 310.62,-283.36 378.62,-283.36 378.62,-319.36"/>
<text text-anchor="middle" x="344.62" y="-297.66" font-family="Times,serif" font-size="14.00">base_link</text>
</g>
<!-- base_joint -->
<g id="node5" class="node">
<title>base_joint</title>
<ellipse fill="none" stroke="blue" cx="307.69" cy="-239.18" rx="46.59" ry="18"/>
<text text-anchor="middle" x="307.69" y="-235.48" font-family="Times,serif" font-size="14.00" fill="blue">base_joint</text>
</g>
<!-- base_link&#45;&gt;base_joint -->
<g id="edge1" class="edge">
<title>base_link&#45;&gt;base_joint</title>
<path fill="none" stroke="black" d="M333.74,-283.04C330.56,-277.68 327.01,-271.71 323.58,-265.94"/>
<polygon fill="black" stroke="black" points="326.48,-263.97 318.37,-257.16 320.46,-267.54 326.48,-263.97"/>
<text text-anchor="middle" x="358.16" y="-263.29" font-family="Times,serif" font-size="14.00">xyz: 0 0 0 </text>
<text text-anchor="middle" x="358.16" y="-248.29" font-family="Times,serif" font-size="14.00">rpy: 0 &#45;0 0</text>
</g>
<!-- link_1 -->
<g id="node2" class="node">
<title>link_1</title>
<polygon fill="none" stroke="black" points="290.23,-200.11 236.23,-200.11 236.23,-164.11 290.23,-164.11 290.23,-200.11"/>
<text text-anchor="middle" x="263.23" y="-178.41" font-family="Times,serif" font-size="14.00">link_1</text>
</g>
<!-- joint_1 -->
<g id="node6" class="node">
<title>joint_1</title>
<ellipse fill="none" stroke="blue" cx="212.11" cy="-130.84" rx="36" ry="18"/>
<text text-anchor="middle" x="212.11" y="-127.14" font-family="Times,serif" font-size="14.00" fill="blue">joint_1</text>
</g>
<!-- link_1&#45;&gt;joint_1 -->
<g id="edge3" class="edge">
<title>link_1&#45;&gt;joint_1</title>
<path fill="none" stroke="black" d="M245.07,-163.89C241.97,-160.78 238.71,-157.51 235.5,-154.29"/>
<polygon fill="black" stroke="black" points="237.72,-151.57 228.18,-146.96 232.76,-156.51 237.72,-151.57"/>
<text text-anchor="middle" x="202.28" y="-177.89" font-family="Times,serif" font-size="14.00">xyz: 0 0 1.48 </text>
<text text-anchor="middle" x="202.28" y="-162.89" font-family="Times,serif" font-size="14.00">rpy: 0 &#45;0 0</text>
</g>
<!-- link_2 -->
<g id="node3" class="node">
<title>link_2</title>
<polygon fill="none" stroke="black" points="182.5,-103.77 128.5,-103.77 128.5,-67.77 182.5,-67.77 182.5,-103.77"/>
<text text-anchor="middle" x="155.5" y="-82.07" font-family="Times,serif" font-size="14.00">link_2</text>
</g>
<!-- joint_2 -->
<g id="node7" class="node">
<title>joint_2</title>
<ellipse fill="none" stroke="blue" cx="93.84" cy="-47.87" rx="36" ry="18"/>
<text text-anchor="middle" x="93.84" y="-44.17" font-family="Times,serif" font-size="14.00" fill="blue">joint_2</text>
</g>
<!-- link_2&#45;&gt;joint_2 -->
<g id="edge5" class="edge">
<title>link_2&#45;&gt;joint_2</title>
<path fill="none" stroke="black" d="M128.27,-69.04C127.31,-68.44 126.33,-67.84 125.36,-67.25"/>
<polygon fill="black" stroke="black" points="127.03,-64.16 116.68,-61.91 123.36,-70.13 127.03,-64.16"/>
<text text-anchor="middle" x="88.82" y="-86.94" font-family="Times,serif" font-size="14.00">xyz: 0 0 1.48 </text>
<text text-anchor="middle" x="88.82" y="-71.94" font-family="Times,serif" font-size="14.00">rpy: 0 &#45;0 0</text>
</g>
<!-- gripper -->
<g id="node4" class="node">
<title>gripper</title>
<polygon fill="none" stroke="black" points="56,-36 0,-36 0,0 56,0 56,-36"/>
<text text-anchor="middle" x="28" y="-14.3" font-family="Times,serif" font-size="14.00">gripper</text>
</g>
<!-- base_joint&#45;&gt;link_1 -->
<g id="edge2" class="edge">
<title>base_joint&#45;&gt;link_1</title>
<path fill="none" stroke="black" d="M294.11,-221.75C290.79,-217.49 287.17,-212.83 283.61,-208.26"/>
<polygon fill="black" stroke="black" points="286.25,-205.96 277.35,-200.23 280.73,-210.27 286.25,-205.96"/>
</g>
<!-- joint_1&#45;&gt;link_2 -->
<g id="edge4" class="edge">
<title>joint_1&#45;&gt;link_2</title>
<path fill="none" stroke="black" d="M192.94,-115.58C190.72,-113.81 188.41,-111.97 186.08,-110.11"/>
<polygon fill="black" stroke="black" points="188.17,-107.31 178.17,-103.82 183.81,-112.78 188.17,-107.31"/>
</g>
<!-- joint_2&#45;&gt;gripper -->
<g id="edge6" class="edge">
<title>joint_2&#45;&gt;gripper</title>
<path fill="none" stroke="black" d="M67.06,-35.72C66.5,-35.47 65.94,-35.22 65.38,-34.96"/>
<polygon fill="black" stroke="black" points="66.81,-31.77 56.26,-30.82 63.92,-38.14 66.81,-31.77"/>
</g>
</g>
</svg>
