<?xml version="1.0" encoding="UTF-8" standalone="no"?>
<!DOCTYPE svg PUBLIC "-//W3C//DTD SVG 1.1//EN"
 "http://www.w3.org/Graphics/SVG/1.1/DTD/svg11.dtd">
<!-- Generated by graphviz version 2.43.0 (0)
 -->
<!-- Title: G Pages: 1 -->
<svg width="1138pt" height="521pt"
 viewBox="0.00 0.00 1138.48 520.68" xmlns="http://www.w3.org/2000/svg" xmlns:xlink="http://www.w3.org/1999/xlink">
<g id="graph0" class="graph" transform="scale(1 1) rotate(0) translate(4 516.68)">
<title>G</title>
<polygon fill="white" stroke="transparent" points="-4,4 -4,-516.68 1134.48,-516.68 1134.48,4 -4,4"/>
<!-- chassis -->
<g id="node1" class="node">
<title>chassis</title>
<polygon fill="none" stroke="black" points="786.1,-349.83 731.1,-349.83 731.1,-313.83 786.1,-313.83 786.1,-349.83"/>
<text text-anchor="middle" x="758.6" y="-328.13" font-family="Times,serif" font-size="14.00">chassis</text>
</g>
<!-- connector_joint -->
<g id="node14" class="node">
<title>connector_joint</title>
<ellipse fill="none" stroke="blue" cx="672.87" cy="-323.46" rx="65.79" ry="18"/>
<text text-anchor="middle" x="672.87" y="-319.76" font-family="Times,serif" font-size="14.00" fill="blue">connector_joint</text>
</g>
<!-- chassis&#45;&gt;connector_joint -->
<g id="edge1" class="edge">
<title>chassis&#45;&gt;connector_joint</title>
<path fill="none" stroke="black" d="M731,-329.13C730.95,-329.13 730.9,-329.13 730.85,-329.12"/>
<polygon fill="black" stroke="black" points="741,-326.6 730.71,-329.11 740.32,-333.57 741,-326.6"/>
<text text-anchor="middle" x="695.93" y="-347.93" font-family="Times,serif" font-size="14.00">xyz: 0 0 0.1 </text>
<text text-anchor="middle" x="695.93" y="-332.93" font-family="Times,serif" font-size="14.00">rpy: 0 &#45;0 0</text>
</g>
<!-- front_left_steering_joint -->
<g id="node20" class="node">
<title>front_left_steering_joint</title>
<ellipse fill="none" stroke="blue" cx="766.6" cy="-245.34" rx="96.68" ry="18"/>
<text text-anchor="middle" x="766.6" y="-241.64" font-family="Times,serif" font-size="14.00" fill="blue">front_left_steering_joint</text>
</g>
<!-- chassis&#45;&gt;front_left_steering_joint -->
<g id="edge13" class="edge">
<title>chassis&#45;&gt;front_left_steering_joint</title>
<path fill="none" stroke="black" d="M760.3,-313.48C761.38,-301.83 762.79,-286.5 764.01,-273.34"/>
<polygon fill="black" stroke="black" points="767.5,-273.64 764.94,-263.36 760.53,-272.99 767.5,-273.64"/>
<text text-anchor="middle" x="707.65" y="-282.21" font-family="Times,serif" font-size="14.00">xyz: 0.4 0.3 &#45;0.265 </text>
<text text-anchor="middle" x="707.65" y="-267.21" font-family="Times,serif" font-size="14.00">rpy: 0 &#45;0 0</text>
</g>
<!-- front_right_steering_joint -->
<g id="node22" class="node">
<title>front_right_steering_joint</title>
<ellipse fill="none" stroke="blue" cx="842.48" cy="-322.41" rx="101.28" ry="18"/>
<text text-anchor="middle" x="842.48" y="-318.71" font-family="Times,serif" font-size="14.00" fill="blue">front_right_steering_joint</text>
</g>
<!-- chassis&#45;&gt;front_right_steering_joint -->
<g id="edge17" class="edge">
<title>chassis&#45;&gt;front_right_steering_joint</title>
<path fill="none" stroke="black" d="M786.53,-328.69C786.58,-328.69 786.63,-328.68 786.67,-328.68"/>
<polygon fill="black" stroke="black" points="777.27,-333.26 786.82,-328.66 776.49,-326.3 777.27,-333.26"/>
<text text-anchor="middle" x="843.1" y="-347.48" font-family="Times,serif" font-size="14.00">xyz: 0.4 &#45;0.3 &#45;0.265 </text>
<text text-anchor="middle" x="843.1" y="-332.48" font-family="Times,serif" font-size="14.00">rpy: 0 &#45;0 0</text>
</g>
<!-- rear_left_drive_joint -->
<g id="node24" class="node">
<title>rear_left_drive_joint</title>
<ellipse fill="none" stroke="blue" cx="732.49" cy="-410.28" rx="83.39" ry="18"/>
<text text-anchor="middle" x="732.49" y="-406.58" font-family="Times,serif" font-size="14.00" fill="blue">rear_left_drive_joint</text>
</g>
<!-- chassis&#45;&gt;rear_left_drive_joint -->
<g id="edge21" class="edge">
<title>chassis&#45;&gt;rear_left_drive_joint</title>
<path fill="none" stroke="black" d="M752.54,-350.02C749.34,-359.63 745.35,-371.62 741.77,-382.37"/>
<polygon fill="black" stroke="black" points="738.35,-381.59 738.51,-392.18 744.99,-383.8 738.35,-381.59"/>
<text text-anchor="middle" x="690.66" y="-385" font-family="Times,serif" font-size="14.00">xyz: &#45;0.4 0.3 &#45;0.265 </text>
<text text-anchor="middle" x="690.66" y="-370" font-family="Times,serif" font-size="14.00">rpy: 0 &#45;0 0</text>
</g>
<!-- rear_right_drive_joint -->
<g id="node25" class="node">
<title>rear_right_drive_joint</title>
<ellipse fill="none" stroke="blue" cx="801.44" cy="-401.58" rx="88.28" ry="18"/>
<text text-anchor="middle" x="801.44" y="-397.88" font-family="Times,serif" font-size="14.00" fill="blue">rear_right_drive_joint</text>
</g>
<!-- chassis&#45;&gt;rear_right_drive_joint -->
<g id="edge23" class="edge">
<title>chassis&#45;&gt;rear_right_drive_joint</title>
<path fill="none" stroke="black" d="M769.85,-350.15C774.51,-357.74 780.01,-366.69 785.1,-374.98"/>
<polygon fill="black" stroke="black" points="782.19,-376.93 790.4,-383.62 788.15,-373.26 782.19,-376.93"/>
<text text-anchor="middle" x="836.48" y="-381.37" font-family="Times,serif" font-size="14.00">xyz: &#45;0.4 &#45;0.3 &#45;0.265 </text>
<text text-anchor="middle" x="836.48" y="-366.37" font-family="Times,serif" font-size="14.00">rpy: 0 &#45;0 0</text>
</g>
<!-- base_link -->
<g id="node2" class="node">
<title>base_link</title>
<polygon fill="none" stroke="black" points="626.54,-344.56 558.54,-344.56 558.54,-308.56 626.54,-308.56 626.54,-344.56"/>
<text text-anchor="middle" x="592.54" y="-322.86" font-family="Times,serif" font-size="14.00">base_link</text>
</g>
<!-- base_joint -->
<g id="node15" class="node">
<title>base_joint</title>
<ellipse fill="none" stroke="blue" cx="516.02" cy="-334.74" rx="46.59" ry="18"/>
<text text-anchor="middle" x="516.02" y="-331.04" font-family="Times,serif" font-size="14.00" fill="blue">base_joint</text>
</g>
<!-- base_link&#45;&gt;base_joint -->
<g id="edge3" class="edge">
<title>base_link&#45;&gt;base_joint</title>
<path fill="none" stroke="black" d="M558.31,-330.22C558.23,-330.23 558.15,-330.23 558.07,-330.24"/>
<polygon fill="black" stroke="black" points="567.4,-325.72 557.83,-330.27 568.15,-332.68 567.4,-325.72"/>
<text text-anchor="middle" x="528.69" y="-319.03" font-family="Times,serif" font-size="14.00">xyz: 0 0 0 </text>
<text text-anchor="middle" x="528.69" y="-304.03" font-family="Times,serif" font-size="14.00">rpy: 0 &#45;0 0</text>
</g>
<!-- link_1 -->
<g id="node3" class="node">
<title>link_1</title>
<polygon fill="none" stroke="black" points="468.04,-360.29 414.04,-360.29 414.04,-324.29 468.04,-324.29 468.04,-360.29"/>
<text text-anchor="middle" x="441.04" y="-338.59" font-family="Times,serif" font-size="14.00">link_1</text>
</g>
<!-- joint_1 -->
<g id="node16" class="node">
<title>joint_1</title>
<ellipse fill="none" stroke="blue" cx="366.75" cy="-349.91" rx="36" ry="18"/>
<text text-anchor="middle" x="366.75" y="-346.21" font-family="Times,serif" font-size="14.00" fill="blue">joint_1</text>
</g>
<!-- link_1&#45;&gt;joint_1 -->
<g id="edge5" class="edge">
<title>link_1&#45;&gt;joint_1</title>
<path fill="none" stroke="black" d="M413.8,-345.08C413.19,-345.15 412.58,-345.21 411.97,-345.27"/>
<polygon fill="black" stroke="black" points="411.43,-341.81 401.84,-346.31 412.15,-348.77 411.43,-341.81"/>
<text text-anchor="middle" x="377.88" y="-333.98" font-family="Times,serif" font-size="14.00">xyz: 0 0 0.3 </text>
<text text-anchor="middle" x="377.88" y="-318.98" font-family="Times,serif" font-size="14.00">rpy: 0 &#45;0 0</text>
</g>
<!-- link_2 -->
<g id="node4" class="node">
<title>link_2</title>
<polygon fill="none" stroke="black" points="319.33,-374.2 265.33,-374.2 265.33,-338.2 319.33,-338.2 319.33,-374.2"/>
<text text-anchor="middle" x="292.33" y="-352.5" font-family="Times,serif" font-size="14.00">link_2</text>
</g>
<!-- joint_2 -->
<g id="node17" class="node">
<title>joint_2</title>
<ellipse fill="none" stroke="blue" cx="216.71" cy="-359.03" rx="36" ry="18"/>
<text text-anchor="middle" x="216.71" y="-355.33" font-family="Times,serif" font-size="14.00" fill="blue">joint_2</text>
</g>
<!-- link_2&#45;&gt;joint_2 -->
<g id="edge7" class="edge">
<title>link_2&#45;&gt;joint_2</title>
<path fill="none" stroke="black" d="M265.03,-357.22C264.27,-357.25 263.5,-357.28 262.73,-357.31"/>
<polygon fill="black" stroke="black" points="262.39,-353.82 252.53,-357.69 262.65,-360.81 262.39,-353.82"/>
<text text-anchor="middle" x="228.88" y="-346.07" font-family="Times,serif" font-size="14.00">xyz: 0 0 0.3 </text>
<text text-anchor="middle" x="228.88" y="-331.07" font-family="Times,serif" font-size="14.00">rpy: 0 &#45;0 0</text>
</g>
<!-- gripper -->
<g id="node5" class="node">
<title>gripper</title>
<polygon fill="none" stroke="black" points="165.1,-380.81 109.1,-380.81 109.1,-344.81 165.1,-344.81 165.1,-380.81"/>
<text text-anchor="middle" x="137.1" y="-359.11" font-family="Times,serif" font-size="14.00">gripper</text>
</g>
<!-- joint_3 -->
<g id="node18" class="node">
<title>joint_3</title>
<ellipse fill="none" stroke="blue" cx="94" cy="-432.18" rx="36" ry="18"/>
<text text-anchor="middle" x="94" y="-428.48" font-family="Times,serif" font-size="14.00" fill="blue">joint_3</text>
</g>
<!-- gripper&#45;&gt;joint_3 -->
<g id="edge9" class="edge">
<title>gripper&#45;&gt;joint_3</title>
<path fill="none" stroke="black" d="M125.78,-381.04C121.01,-388.7 115.38,-397.76 110.2,-406.11"/>
<polygon fill="black" stroke="black" points="107.11,-404.45 104.8,-414.79 113.05,-408.15 107.11,-404.45"/>
<text text-anchor="middle" x="164.99" y="-412.38" font-family="Times,serif" font-size="14.00">xyz: 0.05 0 0.01 </text>
<text text-anchor="middle" x="164.99" y="-397.38" font-family="Times,serif" font-size="14.00">rpy: 0 &#45;0 0</text>
</g>
<!-- joint_4 -->
<g id="node19" class="node">
<title>joint_4</title>
<ellipse fill="none" stroke="blue" cx="87.04" cy="-298.28" rx="36" ry="18"/>
<text text-anchor="middle" x="87.04" y="-294.58" font-family="Times,serif" font-size="14.00" fill="blue">joint_4</text>
</g>
<!-- gripper&#45;&gt;joint_4 -->
<g id="edge11" class="edge">
<title>gripper&#45;&gt;joint_4</title>
<path fill="none" stroke="black" d="M122.89,-344.49C117.74,-337.85 111.83,-330.23 106.31,-323.12"/>
<polygon fill="black" stroke="black" points="108.98,-320.85 100.08,-315.1 103.45,-325.14 108.98,-320.85"/>
<text text-anchor="middle" x="65.6" y="-352.61" font-family="Times,serif" font-size="14.00">xyz: &#45;0.05 0 0.01 </text>
<text text-anchor="middle" x="65.6" y="-337.61" font-family="Times,serif" font-size="14.00">rpy: 0 &#45;0 0</text>
</g>
<!-- finger_1 -->
<g id="node6" class="node">
<title>finger_1</title>
<polygon fill="none" stroke="black" points="74.28,-507.01 12.28,-507.01 12.28,-471.01 74.28,-471.01 74.28,-507.01"/>
<text text-anchor="middle" x="43.28" y="-485.31" font-family="Times,serif" font-size="14.00">finger_1</text>
</g>
<!-- finger_2 -->
<g id="node7" class="node">
<title>finger_2</title>
<polygon fill="none" stroke="black" points="62,-264.56 0,-264.56 0,-228.56 62,-228.56 62,-264.56"/>
<text text-anchor="middle" x="31" y="-242.86" font-family="Times,serif" font-size="14.00">finger_2</text>
</g>
<!-- left_steering -->
<g id="node8" class="node">
<title>left_steering</title>
<polygon fill="none" stroke="black" points="825.77,-182.93 741.77,-182.93 741.77,-146.93 825.77,-146.93 825.77,-182.93"/>
<text text-anchor="middle" x="783.77" y="-161.23" font-family="Times,serif" font-size="14.00">left_steering</text>
</g>
<!-- front_left_wheel_joint -->
<g id="node21" class="node">
<title>front_left_wheel_joint</title>
<ellipse fill="none" stroke="blue" cx="805.88" cy="-89.68" rx="89.88" ry="18"/>
<text text-anchor="middle" x="805.88" y="-85.98" font-family="Times,serif" font-size="14.00" fill="blue">front_left_wheel_joint</text>
</g>
<!-- left_steering&#45;&gt;front_left_wheel_joint -->
<g id="edge15" class="edge">
<title>left_steering&#45;&gt;front_left_wheel_joint</title>
<path fill="none" stroke="black" d="M789.13,-146.71C791.71,-137.93 794.86,-127.21 797.73,-117.44"/>
<polygon fill="black" stroke="black" points="801.12,-118.31 800.58,-107.73 794.4,-116.34 801.12,-118.31"/>
<text text-anchor="middle" x="763.93" y="-120.88" font-family="Times,serif" font-size="14.00">xyz: 0 0 0 </text>
<text text-anchor="middle" x="763.93" y="-105.88" font-family="Times,serif" font-size="14.00">rpy: 0 &#45;0 0</text>
</g>
<!-- front_left_wheel -->
<g id="node9" class="node">
<title>front_left_wheel</title>
<polygon fill="none" stroke="black" points="884.32,-36 777.32,-36 777.32,0 884.32,0 884.32,-36"/>
<text text-anchor="middle" x="830.82" y="-14.3" font-family="Times,serif" font-size="14.00">front_left_wheel</text>
</g>
<!-- right_steering -->
<g id="node10" class="node">
<title>right_steering</title>
<polygon fill="none" stroke="black" points="969.71,-347.61 877.71,-347.61 877.71,-311.61 969.71,-311.61 969.71,-347.61"/>
<text text-anchor="middle" x="923.71" y="-325.91" font-family="Times,serif" font-size="14.00">right_steering</text>
</g>
<!-- front_right_wheel_joint -->
<g id="node23" class="node">
<title>front_right_wheel_joint</title>
<ellipse fill="none" stroke="blue" cx="999.51" cy="-344.02" rx="94.78" ry="18"/>
<text text-anchor="middle" x="999.51" y="-340.32" font-family="Times,serif" font-size="14.00" fill="blue">front_right_wheel_joint</text>
</g>
<!-- right_steering&#45;&gt;front_right_wheel_joint -->
<g id="edge19" class="edge">
<title>right_steering&#45;&gt;front_right_wheel_joint</title>
<path fill="none" stroke="black" d="M969.99,-338.41C970.05,-338.42 970.11,-338.43 970.17,-338.44"/>
<polygon fill="black" stroke="black" points="959.88,-340.04 970.35,-338.48 961.19,-333.17 959.88,-340.04"/>
<text text-anchor="middle" x="999.58" y="-327.23" font-family="Times,serif" font-size="14.00">xyz: 0 0 0 </text>
<text text-anchor="middle" x="999.58" y="-312.23" font-family="Times,serif" font-size="14.00">rpy: 0 &#45;0 0</text>
</g>
<!-- front_right_wheel -->
<g id="node11" class="node">
<title>front_right_wheel</title>
<polygon fill="none" stroke="black" points="1130.48,-370.85 1016.48,-370.85 1016.48,-334.85 1130.48,-334.85 1130.48,-370.85"/>
<text text-anchor="middle" x="1073.48" y="-349.15" font-family="Times,serif" font-size="14.00">front_right_wheel</text>
</g>
<!-- rear_left_wheel -->
<g id="node12" class="node">
<title>rear_left_wheel</title>
<polygon fill="none" stroke="black" points="780.77,-512.68 679.77,-512.68 679.77,-476.68 780.77,-476.68 780.77,-512.68"/>
<text text-anchor="middle" x="730.27" y="-490.98" font-family="Times,serif" font-size="14.00">rear_left_wheel</text>
</g>
<!-- rear_right_wheel -->
<g id="node13" class="node">
<title>rear_right_wheel</title>
<polygon fill="none" stroke="black" points="892.12,-495.67 783.12,-495.67 783.12,-459.67 892.12,-459.67 892.12,-495.67"/>
<text text-anchor="middle" x="837.62" y="-473.97" font-family="Times,serif" font-size="14.00">rear_right_wheel</text>
</g>
<!-- connector_joint&#45;&gt;base_link -->
<g id="edge2" class="edge">
<title>connector_joint&#45;&gt;base_link</title>
<path fill="none" stroke="black" d="M607.65,-325.98C607.58,-325.98 607.51,-325.98 607.44,-325.98"/>
<polygon fill="black" stroke="black" points="617.09,-322.11 607.24,-325.99 617.36,-329.1 617.09,-322.11"/>
</g>
<!-- base_joint&#45;&gt;link_1 -->
<g id="edge4" class="edge">
<title>base_joint&#45;&gt;link_1</title>
<path fill="none" stroke="black" d="M470.68,-339.31C470.57,-339.32 470.46,-339.33 470.35,-339.34"/>
<polygon fill="black" stroke="black" points="477.7,-335.08 468.1,-339.56 478.41,-342.04 477.7,-335.08"/>
</g>
<!-- joint_1&#45;&gt;link_2 -->
<g id="edge6" class="edge">
<title>joint_1&#45;&gt;link_2</title>
<path fill="none" stroke="black" d="M331.28,-352.91C330.79,-352.95 330.31,-352.99 329.82,-353.03"/>
<polygon fill="black" stroke="black" points="329.36,-349.55 319.69,-353.89 329.95,-356.53 329.36,-349.55"/>
</g>
<!-- joint_2&#45;&gt;gripper -->
<g id="edge8" class="edge">
<title>joint_2&#45;&gt;gripper</title>
<path fill="none" stroke="black" d="M181.1,-360.72C179.28,-360.81 177.44,-360.9 175.61,-360.99"/>
<polygon fill="black" stroke="black" points="175.1,-357.51 165.28,-361.48 175.44,-364.5 175.1,-357.51"/>
</g>
<!-- joint_3&#45;&gt;finger_1 -->
<g id="edge10" class="edge">
<title>joint_3&#45;&gt;finger_1</title>
<path fill="none" stroke="black" d="M79.33,-448.62C75.26,-453.18 70.74,-458.24 66.32,-463.2"/>
<polygon fill="black" stroke="black" points="63.57,-461.02 59.52,-470.81 68.79,-465.68 63.57,-461.02"/>
</g>
<!-- joint_4&#45;&gt;finger_2 -->
<g id="edge12" class="edge">
<title>joint_4&#45;&gt;finger_2</title>
<path fill="none" stroke="black" d="M69.61,-282.2C65.93,-278.8 61.97,-275.14 58.03,-271.5"/>
<polygon fill="black" stroke="black" points="60.28,-268.82 50.56,-264.61 55.54,-273.97 60.28,-268.82"/>
</g>
<!-- front_left_steering_joint&#45;&gt;left_steering -->
<g id="edge14" class="edge">
<title>front_left_steering_joint&#45;&gt;left_steering</title>
<path fill="none" stroke="black" d="M770.5,-227.09C772.65,-217.02 775.37,-204.29 777.79,-192.97"/>
<polygon fill="black" stroke="black" points="781.23,-193.61 779.89,-183.1 774.38,-192.15 781.23,-193.61"/>
</g>
<!-- front_left_wheel_joint&#45;&gt;front_left_wheel -->
<g id="edge16" class="edge">
<title>front_left_wheel_joint&#45;&gt;front_left_wheel</title>
<path fill="none" stroke="black" d="M812.18,-71.59C814.87,-63.84 818.09,-54.61 821.08,-46.01"/>
<polygon fill="black" stroke="black" points="824.46,-46.93 824.45,-36.33 817.85,-44.63 824.46,-46.93"/>
</g>
<!-- front_right_steering_joint&#45;&gt;right_steering -->
<g id="edge18" class="edge">
<title>front_right_steering_joint&#45;&gt;right_steering</title>
<path fill="none" stroke="black" d="M923.65,-329.6C923.66,-329.6 923.67,-329.6 923.68,-329.6"/>
<polygon fill="black" stroke="black" points="913.41,-332.16 923.7,-329.6 914.06,-325.19 913.41,-332.16"/>
</g>
<!-- front_right_wheel_joint&#45;&gt;front_right_wheel -->
<g id="edge20" class="edge">
<title>front_right_wheel_joint&#45;&gt;front_right_wheel</title>
<path fill="none" stroke="black" d="M1073.42,-352.84C1073.43,-352.84 1073.44,-352.84 1073.45,-352.84"/>
<polygon fill="black" stroke="black" points="1063.1,-355.08 1073.46,-352.84 1063.97,-348.13 1063.1,-355.08"/>
</g>
<!-- rear_left_drive_joint&#45;&gt;rear_left_wheel -->
<g id="edge22" class="edge">
<title>rear_left_drive_joint&#45;&gt;rear_left_wheel</title>
<path fill="none" stroke="black" d="M732,-428.59C731.72,-439.54 731.35,-453.69 731.02,-466.09"/>
<polygon fill="black" stroke="black" points="727.51,-466.31 730.75,-476.4 734.51,-466.5 727.51,-466.31"/>
</g>
<!-- rear_right_drive_joint&#45;&gt;rear_right_wheel -->
<g id="edge24" class="edge">
<title>rear_right_drive_joint&#45;&gt;rear_right_wheel</title>
<path fill="none" stroke="black" d="M810.01,-419.61C814.35,-428.74 819.71,-440.01 824.55,-450.18"/>
<polygon fill="black" stroke="black" points="821.52,-451.97 828.98,-459.5 827.85,-448.97 821.52,-451.97"/>
</g>
</g>
</svg>
